<?xml version="1.0" standalone="no"?>
<!DOCTYPE svg PUBLIC "-//W3C//DTD SVG 20010904//EN"
 "http://www.w3.org/TR/2001/REC-SVG-20010904/DTD/svg10.dtd">
<svg version="1.0" xmlns="http://www.w3.org/2000/svg"
 width="1024.000000pt" height="1024.000000pt" viewBox="0 0 1024.000000 1024.000000"
 preserveAspectRatio="xMidYMid meet">

<g transform="translate(0.000000,1024.000000) scale(0.100000,-0.100000)"
fill="#000000" stroke="none">
<path d="M4982 7503 l-82 -4 -31 -60 c-29 -58 -29 -62 -13 -80 9 -10 21 -19
25 -19 4 0 23 -15 43 -32 60 -56 64 -58 121 -58 l55 0 0 130 c0 118 -2 130
-17 128 -10 -1 -55 -4 -101 -5z"/>
<path d="M5058 7193 c12 -2 30 -2 40 0 9 3 -1 5 -23 4 -22 0 -30 -2 -17 -4z"/>
<path d="M5238 7183 c7 -3 16 -2 19 1 4 3 -2 6 -13 5 -11 0 -14 -3 -6 -6z"/>
<path d="M3923 6578 c4 -277 7 -738 7 -1025 l0 -523 108 -111 c59 -62 157
-157 217 -213 l110 -101 5 669 5 669 295 -314 c162 -173 327 -348 368 -389
l73 -75 -3 326 -3 325 -45 51 c-25 28 -148 160 -275 295 -126 134 -311 331
-410 438 -348 374 -447 480 -452 480 -3 0 -3 -226 0 -502z m986 -573 c7 3 8 0
5 -9 -5 -12 -9 -13 -25 -3 -10 6 -19 19 -19 27 1 12 4 11 15 -4 7 -10 18 -15
24 -11z"/>
<path d="M4584 6751 c-40 -17 -64 -60 -64 -113 0 -43 4 -54 34 -84 29 -29 41
-34 79 -34 151 0 165 223 15 236 -24 2 -53 0 -64 -5z"/>
<path d="M4790 6524 c-41 -24 -94 -50 -118 -56 l-42 -10 99 -107 c55 -58 149
-158 210 -221 l110 -115 -69 209 c-38 115 -67 212 -64 215 3 3 30 -20 59 -52
l52 -57 -5 52 c-4 49 -9 58 -70 121 -37 37 -71 67 -77 67 -5 0 -44 -21 -85
-46z"/>
<path d="M3370 5966 c0 -2 8 -10 18 -17 15 -13 16 -12 3 4 -13 16 -21 21 -21
13z"/>
<path d="M3480 5679 l0 -86 -70 -54 c-46 -35 -69 -58 -66 -68 3 -9 16 -67 30
-130 14 -63 31 -120 36 -125 8 -8 9 -6 5 6 -7 19 34 62 70 74 23 8 65 38 107
75 27 24 28 27 18 79 -6 30 -15 103 -20 164 -5 60 -11 110 -13 112 -2 2 -21 6
-42 9 -21 2 -42 10 -47 17 -4 7 -8 -26 -8 -73z"/>
<path d="M3638 5721 c-7 -134 32 -364 86 -496 l22 -55 25 17 c13 9 25 17 26
18 1 0 -11 43 -27 95 -38 120 -57 220 -66 345 l-7 100 -28 1 c-24 1 -29 -3
-31 -25z"/>
<path d="M4440 5435 l0 -140 33 -26 32 -26 -3 89 c-2 48 1 88 5 88 5 0 24 -15
42 -34 l33 -34 39 42 38 41 1 -94 0 -95 30 29 29 28 0 130 0 130 -27 -24 c-15
-13 -46 -41 -70 -63 l-42 -40 -70 69 -70 69 0 -139z"/>
<path d="M3815 3631 c-59 -27 -78 -53 -83 -114 -4 -49 -2 -56 26 -84 23 -22
53 -36 114 -53 46 -12 91 -26 101 -31 23 -13 22 -56 -2 -69 -32 -17 -122 -11
-170 10 -24 11 -45 19 -47 17 -2 -2 -10 -20 -19 -40 l-16 -38 45 -20 c58 -25
158 -35 214 -20 62 17 112 66 118 116 9 76 -38 121 -156 150 -39 10 -80 25
-92 35 -19 15 -21 21 -11 43 19 41 117 48 185 13 25 -13 26 -13 41 25 18 44
13 51 -48 68 -61 17 -154 13 -200 -8z"/>
<path d="M2690 3415 l0 -225 175 0 175 0 0 40 0 40 -125 0 -125 0 0 55 0 55
105 0 105 0 0 40 0 40 -105 0 -105 0 0 50 0 50 125 0 125 0 -2 40 -3 40 -172
0 -173 0 0 -225z"/>
<path d="M3130 3416 l0 -226 45 0 45 0 0 130 c0 72 3 130 8 130 4 0 33 -47 65
-105 32 -58 62 -107 67 -110 5 -3 19 -1 33 4 17 7 42 42 83 117 l59 107 3
-136 3 -137 49 0 50 0 0 225 0 225 -47 0 -48 -1 -76 -131 c-42 -73 -80 -133
-85 -135 -5 -2 -44 56 -86 129 l-76 133 -46 3 -46 3 0 -225z"/>
<path d="M4160 3370 l0 -40 95 0 95 0 0 40 0 40 -95 0 -95 0 0 -40z"/>
<path d="M5743 2950 c0 -47 2 -67 4 -45 3 22 10 46 16 54 9 11 9 13 0 8 -8 -5
-13 5 -16 30 -2 21 -4 0 -4 -47z"/>
<path d="M2943 3013 c15 -2 37 -2 50 0 12 2 0 4 -28 4 -27 0 -38 -2 -22 -4z"/>
<path d="M6028 3013 c12 -2 30 -2 40 0 9 3 -1 5 -23 4 -22 0 -30 -2 -17 -4z"/>
<path d="M6151 3003 c0 -12 -9 -24 -18 -26 -17 -4 -17 -5 0 -6 11 -1 17 -10
18 -28 2 -28 2 -28 6 -3 3 14 10 28 17 32 8 6 8 8 -1 8 -6 0 -14 10 -16 23 -4
22 -4 22 -6 0z"/>
<path d="M6233 3003 c-3 -10 -7 -20 -9 -23 -1 -3 2 -12 7 -20 9 -13 10 -13 6
0 -2 8 0 25 4 38 5 12 6 22 3 22 -2 0 -7 -8 -11 -17z"/>
<path d="M4903 2940 c0 -41 2 -58 4 -37 2 20 2 54 0 75 -2 20 -4 3 -4 -38z"/>
<path d="M4682 2984 c-7 -8 -8 -14 -2 -14 5 0 10 -20 10 -44 0 -25 3 -47 8
-49 7 -5 7 111 0 118 -1 2 -9 -3 -16 -11z"/>
<path d="M3127 2973 c23 -4 29 -17 36 -78 3 -24 4 -22 6 11 0 22 6 45 13 52
19 19 48 14 58 -10 8 -18 9 -19 7 -4 -3 30 -33 43 -58 28 -15 -10 -24 -11 -32
-3 -6 6 -20 10 -31 10 -19 -2 -19 -2 1 -6z"/>
<path d="M3368 2973 c7 -3 16 -2 19 1 4 3 -2 6 -13 5 -11 0 -14 -3 -6 -6z"/>
<path d="M3690 2971 c0 -5 -3 -18 -6 -28 -5 -15 -4 -16 5 -3 10 13 12 13 22 0
9 -13 10 -12 5 3 -3 10 -6 23 -6 28 0 5 -4 9 -10 9 -5 0 -10 -4 -10 -9z"/>
<path d="M3868 2973 c6 -2 18 -2 25 0 6 3 1 5 -13 5 -14 0 -19 -2 -12 -5z"/>
<path d="M4120 2925 c0 -32 2 -56 4 -54 8 8 10 98 3 105 -4 4 -7 -19 -7 -51z"/>
<path d="M4180 2971 c21 -6 26 -14 31 -56 l5 -50 5 44 c8 83 69 83 80 0 l6
-44 1 38 c1 21 -3 47 -8 58 -12 21 -50 25 -68 7 -9 -9 -15 -9 -24 0 -7 7 -21
12 -32 11 -18 -1 -17 -2 4 -8z"/>
<path d="M4522 2925 c1 -44 2 -49 5 -20 3 22 10 46 16 54 9 11 9 13 0 8 -6 -4
-14 -1 -16 5 -3 7 -5 -14 -5 -47z"/>
<path d="M4580 2971 c21 -6 26 -14 31 -56 l6 -50 1 46 c2 49 -11 70 -42 68
-18 -1 -17 -2 4 -8z"/>
<path d="M5060 2973 c8 -3 22 -11 30 -17 13 -10 13 -9 1 7 -7 9 -21 17 -30 16
-13 0 -14 -1 -1 -6z"/>
<path d="M5172 2925 c1 -44 2 -49 5 -20 3 22 10 46 16 54 9 11 9 13 0 8 -6 -4
-14 -1 -16 5 -3 7 -5 -14 -5 -47z"/>
<path d="M5277 2962 c-18 -20 -23 -57 -9 -66 5 -3 7 7 4 23 -4 29 9 46 43 54
19 4 19 5 -1 6 -11 0 -28 -7 -37 -17z"/>
<path d="M5512 2960 c0 -14 2 -19 5 -12 2 6 2 18 0 25 -3 6 -5 1 -5 -13z"/>
<path d="M5608 2973 c6 -2 18 -2 25 0 6 3 1 5 -13 5 -14 0 -19 -2 -12 -5z"/>
<path d="M5672 2972 c-1 -8 -7 -10 -14 -6 -10 6 -10 5 -1 -7 15 -18 15 -99 0
-119 -8 -12 -7 -11 7 1 14 13 16 28 13 80 -2 35 -4 58 -5 51z"/>
<path d="M5788 2973 c7 -3 16 -2 19 1 4 3 -2 6 -13 5 -11 0 -14 -3 -6 -6z"/>
<path d="M6420 2976 c0 -2 11 -6 25 -8 13 -3 22 -1 19 3 -5 9 -44 13 -44 5z"/>
<path d="M6533 2925 c0 -33 2 -45 4 -27 2 18 2 45 0 60 -2 15 -4 0 -4 -33z"/>
<path d="M6638 2973 c7 -3 16 -2 19 1 4 3 -2 6 -13 5 -11 0 -14 -3 -6 -6z"/>
<path d="M6750 2925 c0 -32 2 -56 4 -54 8 8 10 98 3 105 -4 4 -7 -19 -7 -51z"/>
<path d="M6941 2976 c2 -2 18 -6 34 -10 22 -5 26 -4 15 4 -14 9 -59 15 -49 6z"/>
<path d="M3333 2963 c-23 -9 -15 -67 10 -82 21 -13 22 -13 5 6 -21 23 -23 54
-6 71 13 13 11 14 -9 5z"/>
<path d="M3828 2945 c-9 -19 -8 -29 6 -50 9 -14 21 -25 26 -25 6 0 1 9 -10 20
-23 23 -24 33 -10 61 6 10 8 19 5 19 -3 0 -10 -11 -17 -25z"/>
<path d="M6392 2958 c-28 -28 -3 -98 30 -85 8 4 7 6 -4 6 -22 1 -35 48 -19 73
13 21 10 23 -7 6z"/>
<path d="M7041 2965 c0 -5 6 -21 14 -35 8 -14 14 -20 14 -15 0 6 -6 21 -14 35
-8 14 -14 21 -14 15z"/>
<path d="M5011 2944 c0 -11 3 -14 6 -6 3 7 2 16 -1 19 -3 4 -6 -2 -5 -13z"/>
<path d="M2943 2943 c15 -2 37 -2 50 0 12 2 0 4 -28 4 -27 0 -38 -2 -22 -4z"/>
<path d="M5571 2929 c0 -15 7 -33 17 -40 15 -12 16 -12 5 1 -6 8 -13 26 -16
40 l-4 25 -2 -26z"/>
<path d="M5833 2910 c0 -25 2 -35 4 -22 2 12 2 32 0 45 -2 12 -4 2 -4 -23z"/>
<path d="M6013 2943 c15 -2 37 -2 50 0 12 2 0 4 -28 4 -27 0 -38 -2 -22 -4z"/>
<path d="M6843 2910 c0 -25 2 -35 4 -22 2 12 2 32 0 45 -2 12 -4 2 -4 -23z"/>
<path d="M4430 2930 l-35 -7 38 -2 c20 0 37 4 37 9 0 6 -1 9 -2 9 -2 -1 -19
-5 -38 -9z"/>
<path d="M5103 2905 c0 -22 2 -30 4 -17 2 12 2 30 0 40 -3 9 -5 -1 -4 -23z"/>
<path d="M6590 2921 c0 -11 4 -22 9 -25 4 -3 6 6 3 19 -5 30 -12 33 -12 6z"/>
<path d="M6901 2923 c-1 -23 23 -53 42 -53 6 0 2 7 -10 15 -12 8 -24 25 -26
38 -4 22 -4 22 -6 0z"/>
<path d="M6232 2900 c0 -19 2 -27 5 -17 2 9 2 25 0 35 -3 9 -5 1 -5 -18z"/>
<path d="M4360 2911 c0 -10 39 -46 43 -40 2 2 -7 14 -20 26 -13 12 -23 19 -23
14z"/>
<path d="M6152 2890 c0 -14 2 -19 5 -12 2 6 2 18 0 25 -3 6 -5 1 -5 -13z"/>
<path d="M3071 2884 c0 -11 3 -14 6 -6 3 7 2 16 -1 19 -3 4 -6 -2 -5 -13z"/>
<path d="M3549 2883 c-13 -16 -12 -17 4 -4 16 13 21 21 13 21 -2 0 -10 -8 -17
-17z"/>
<path d="M3746 2883 c-6 -14 -5 -15 5 -6 7 7 10 15 7 18 -3 3 -9 -2 -12 -12z"/>
<path d="M3906 2885 c-11 -8 -15 -15 -9 -15 6 0 16 7 23 15 16 19 11 19 -14 0z"/>
<path d="M5339 2883 c-13 -16 -12 -17 4 -4 16 13 21 21 13 21 -2 0 -10 -8 -17
-17z"/>
<path d="M5420 2896 c0 -2 8 -10 18 -17 15 -13 16 -12 3 4 -13 16 -21 21 -21
13z"/>
<path d="M5491 2886 c-10 -12 -8 -13 8 -9 12 3 18 9 15 14 -7 12 -10 11 -23
-5z"/>
<path d="M4016 2877 c3 -10 9 -15 12 -12 3 3 0 11 -7 18 -10 9 -11 8 -5 -6z"/>
<path d="M6450 2880 c-13 -8 -13 -10 2 -10 9 0 20 5 23 10 8 13 -5 13 -25 0z"/>
<path d="M6980 2880 c-9 -6 -10 -10 -3 -10 6 0 15 5 18 10 8 12 4 12 -15 0z"/>
<path d="M3322 2855 c0 -16 2 -22 5 -12 2 9 2 23 0 30 -3 6 -5 -1 -5 -18z"/>
<path d="M5618 2873 c7 -3 16 -2 19 1 4 3 -2 6 -13 5 -11 0 -14 -3 -6 -6z"/>
<path d="M6038 2873 c12 -2 30 -2 40 0 9 3 -1 5 -23 4 -22 0 -30 -2 -17 -4z"/>
<path d="M7078 2855 c-3 -13 -2 -22 2 -20 11 7 20 45 10 45 -4 0 -10 -11 -12
-25z"/>
<path d="M7037 2829 c7 -7 15 -10 18 -7 3 3 -2 9 -12 12 -14 6 -15 5 -6 -5z"/>
</g>
</svg>
